<svg width="18" height="24" viewBox="0 0 18 24" fill="none" xmlns="http://www.w3.org/2000/svg">
<path d="M18 9C18 11.3869 17.0518 13.6761 15.364 15.364C13.6761 17.0518 11.3869 18 9 18C6.61305 18 4.32387 17.0518 2.63604 15.364C0.948212 13.6761 0 11.3869 0 9C0 6.61305 0.948212 4.32387 2.63604 2.63604C4.32387 0.948211 6.61305 0 9 0C11.3869 0 13.6761 0.948211 15.364 2.63604C17.0518 4.32387 18 6.61305 18 9ZM8.7705 4.653L7.695 6.9825C7.67614 7.02307 7.64722 7.05815 7.61099 7.0844C7.57476 7.11065 7.53243 7.12721 7.488 7.1325L4.941 7.4355C4.89118 7.44128 4.84406 7.4612 4.80522 7.49292C4.76637 7.52464 4.73742 7.56683 4.7218 7.61448C4.70618 7.66214 4.70453 7.71327 4.71706 7.76183C4.72959 7.81039 4.75577 7.85435 4.7925 7.8885L6.6765 9.63C6.70961 9.66051 6.73431 9.69903 6.74823 9.74185C6.76215 9.78467 6.76483 9.83035 6.756 9.8745L6.255 12.39C6.21 12.6105 6.444 12.78 6.6405 12.6705L8.8785 11.418C8.91768 11.3961 8.96184 11.3845 9.00675 11.3845C9.05166 11.3845 9.09582 11.3961 9.135 11.418L11.373 12.6705C11.568 12.78 11.8035 12.6105 11.76 12.39L11.259 9.8745C11.2502 9.83035 11.2528 9.78467 11.2668 9.74185C11.2807 9.69903 11.3054 9.66051 11.3385 9.63L13.2225 7.8885C13.2592 7.85435 13.2854 7.81039 13.2979 7.76183C13.3105 7.71327 13.3088 7.66214 13.2932 7.61448C13.2776 7.56683 13.2486 7.52464 13.2098 7.49292C13.1709 7.4612 13.1238 7.44128 13.074 7.4355L10.527 7.1325C10.4826 7.12721 10.4402 7.11065 10.404 7.0844C10.3678 7.05815 10.3389 7.02307 10.32 6.9825L9.2445 4.653C9.22335 4.6078 9.18974 4.56957 9.14764 4.54278C9.10553 4.516 9.05666 4.50177 9.00675 4.50177C8.95685 4.50177 8.90797 4.516 8.86586 4.54278C8.82376 4.56957 8.79015 4.6078 8.769 4.653H8.7705ZM9 19.5C11.1458 19.5033 13.2407 18.846 15 17.6175V23.25C14.9999 23.3877 14.9619 23.5227 14.8902 23.6402C14.8185 23.7577 14.7159 23.8532 14.5935 23.9163C14.4711 23.9793 14.3337 24.0075 14.1964 23.9976C14.0591 23.9878 13.9271 23.9403 13.815 23.8605L9 21L4.185 23.8605C4.07285 23.9403 3.9409 23.9878 3.80358 23.9976C3.66627 24.0075 3.52889 23.9793 3.40651 23.9163C3.28413 23.8532 3.18147 23.7577 3.10976 23.6402C3.03806 23.5227 3.00008 23.3877 3 23.25V17.6175C4.75934 18.846 6.85418 19.5033 9 19.5Z" fill="black"/>
</svg>
