<svg width="20" height="25" viewBox="0 0 20 25" fill="none" xmlns="http://www.w3.org/2000/svg">
<path d="M0.81125 3.44625L10 0L19.1887 3.44625C19.427 3.53555 19.6323 3.6954 19.7772 3.90447C19.9222 4.11353 19.9999 4.36185 20 4.61625V10C20 13.9712 18.285 17.75 15.2963 20.365L10 25L4.70375 20.365C3.22636 19.0723 2.04237 17.4787 1.23112 15.6911C0.419876 13.9035 0.000124193 11.9631 0 10V4.61625C9.55247e-05 4.36185 0.0778137 4.11353 0.222774 3.90447C0.367733 3.6954 0.573033 3.53555 0.81125 3.44625ZM8.67375 12.8337L6.90625 11.0688C6.79094 10.9494 6.65301 10.8541 6.50051 10.7886C6.348 10.7231 6.18398 10.6886 6.018 10.6872C5.85203 10.6857 5.68743 10.7174 5.53381 10.7802C5.38019 10.8431 5.24062 10.9359 5.12326 11.0533C5.00589 11.1706 4.91307 11.3102 4.85022 11.4638C4.78737 11.6174 4.75574 11.782 4.75719 11.948C4.75863 12.114 4.79311 12.278 4.85862 12.4305C4.92413 12.583 5.01936 12.7209 5.13875 12.8363L7.79 15.4875C8.02441 15.7218 8.34229 15.8535 8.67375 15.8535C9.00521 15.8535 9.32309 15.7218 9.5575 15.4875L14.8612 10.1838C14.9806 10.0684 15.0759 9.93051 15.1414 9.77801C15.2069 9.6255 15.2414 9.46148 15.2428 9.2955C15.2443 9.12953 15.2126 8.96493 15.1498 8.81131C15.0869 8.65769 14.9941 8.51812 14.8767 8.40076C14.7594 8.28339 14.6198 8.19057 14.4662 8.12772C14.3126 8.06487 14.148 8.03325 13.982 8.03469C13.816 8.03613 13.652 8.07061 13.4995 8.13612C13.347 8.20163 13.2091 8.29686 13.0938 8.41625L8.67375 12.8363V12.8337Z" fill="black"/>
</svg>
