<svg width="30" height="30" viewBox="0 0 30 30" fill="none" xmlns="http://www.w3.org/2000/svg">
<path d="M4.6875 1.34766V2.40234H6.03516V3.22266H7.08984V2.40234H8.4375V1.34766H4.6875ZM4.20703 4.27734L2.4832 16.3477H7.91016V8.4668H5.5957V5.5957H7.91016V4.27734H4.20703ZM10.8398 8.02734V10.7227H15.4102V8.02734H10.8398ZM16.4648 8.02734V10.7227H21.0352V8.02734H16.4648ZM22.0898 8.02734V10.7227H26.6602V8.02734H22.0898ZM10.8398 11.7773V14.4727H15.4102V11.7773H10.8398ZM16.4648 11.7773V14.4727H21.0352V11.7773H16.4648ZM22.0898 11.7773V14.4727H26.6602V11.7773H22.0898ZM10.8398 15.5273V18.2227H15.4102V15.5273H10.8398ZM16.4648 15.5273V18.2227H17.5957L19.4707 16.3477H21.0352V15.5273H16.4648ZM22.0898 15.5273V16.3477H26.6602V15.5273H22.0898ZM1.59492 17.4023L3.00762 23.7598C4.49707 23.3262 6.19336 22.9102 7.5 22.9102C8.91797 22.9102 10.207 23.4141 11.4375 23.8828C12.668 24.3516 13.8398 24.7852 15 24.7852C16.1602 24.7852 17.332 24.3516 18.5625 23.8828C19.6758 23.4609 20.8418 23.0039 22.1074 22.9219L19.5234 22.0605L19.8516 21.0645L21.9727 21.7676V20.2148H20.9766V19.1602H21.9727V17.4023H19.9043L18.0293 19.2773H9.04687L8.10937 17.4023H1.59492ZM23.0273 17.4023V19.1602H24.0234V20.2148H23.0273V21.7676L25.1484 21.0645L25.4766 22.0605L22.8984 22.9219C23.6074 22.9629 24.4043 23.1035 25.207 23.2852C25.5234 22.8691 25.8398 22.3887 26.1504 21.8789C27.0234 20.4199 27.8027 18.7207 28.3066 17.4023H23.0273ZM7.5 23.8477C6.08203 23.8477 4.20352 24.334 2.63145 24.8086C2.04434 24.9844 1.50293 25.1602 1.05469 25.3184V26.4316C1.54453 26.2559 2.20137 26.0391 2.93613 25.8164C4.46953 25.3535 6.33984 24.9023 7.5 24.9023C8.66016 24.9023 9.83203 25.3359 11.0625 25.8047C12.293 26.2734 13.582 26.7773 15 26.7773C16.418 26.7773 17.707 26.2734 18.9375 25.8047C20.168 25.3359 21.3398 24.9023 22.5 24.9023C23.6602 24.9023 25.5293 25.3535 27.0645 25.8164C27.7969 26.0391 28.4531 26.2559 28.9453 26.4316V25.3184C28.4941 25.166 27.9551 24.9844 27.3691 24.8086C25.7988 24.334 23.918 23.8477 22.5 23.8477C21.082 23.8477 19.793 24.3516 18.5625 24.8203C17.332 25.2891 16.1602 25.7227 15 25.7227C13.8398 25.7227 12.668 25.2891 11.4375 24.8203C10.207 24.3516 8.91797 23.8477 7.5 23.8477ZM7.5 25.957C6.08203 25.957 4.20352 26.4434 2.63145 26.918C2.04434 27.0938 1.50293 27.2695 1.05469 27.4277V28.541C1.54453 28.3652 2.20137 28.1484 2.93613 27.9258C4.46953 27.4629 6.33984 27.0117 7.5 27.0117C8.66016 27.0117 9.83203 27.4453 11.0625 27.9141C12.293 28.3828 13.582 28.8867 15 28.8867C16.418 28.8867 17.707 28.3828 18.9375 27.9141C20.168 27.4453 21.3398 27.0117 22.5 27.0117C23.6602 27.0117 25.5293 27.4629 27.0645 27.9258C27.7969 28.1484 28.4531 28.3652 28.9453 28.541V27.4277C28.4941 27.2754 27.9551 27.0938 27.3691 26.918C25.7988 26.4434 23.918 25.957 22.5 25.957C21.082 25.957 19.793 26.4609 18.5625 26.9297C17.332 27.3984 16.1602 27.832 15 27.832C13.8398 27.832 12.668 27.3984 11.4375 26.9297C10.207 26.4609 8.91797 25.957 7.5 25.957Z" fill="black"/>
</svg>
